<svg xmlns="http://www.w3.org/2000/svg" viewBox="0 0 400 400">
  <defs>
    <style>
      .cls-1 {
        isolation: isolate;
      }

      .cls-2 {
        fill: #dbf1fd;
      }

      .cls-3 {
        fill: #ddf4fd;
      }

      .cls-4 {
        fill: #d3f0fd;
      }

      .cls-5 {
        fill: #c5e9fd;
      }

      .cls-6 {
        fill: #bde4fc;
      }

      .cls-7 {
        fill: #a9d7f7;
      }

      .cls-8 {
        fill: #a1cff2;
      }

      .cls-9 {
        fill: #92c3ec;
      }

      .cls-10 {
        fill: #8cbfeb;
      }

      .cls-11 {
        fill: #70abe2;
      }

      .cls-12 {
        fill: #2b6a8e;
      }

      .cls-13 {
        fill: #4686ac;
      }

      .cls-14 {
        fill: #3d7ea5;
      }

      .cls-15 {
        fill: #5594b8;
      }

      .cls-16 {
        fill: #73abcb;
      }

      .cls-17 {
        fill: #95c3dd;
      }

      .cls-18 {
        fill: #a2cce3;
      }

      .cls-19 {
        fill: #d0eaf9;
      }

      .cls-20 {
        fill: #d7eefd;
      }

      .cls-21 {
        fill: #d8effd;
      }

      .cls-22 {
        mix-blend-mode: soft-light;
      }

      .cls-23 {
        fill: #daf1fd;
      }

      .cls-24 {
        fill: #d4f1fe;
      }

      .cls-25 {
        fill: #95c3dc;
      }

      .cls-26 {
        fill: #bce2fa;
      }

      .cls-27 {
        fill: #cdedfd;
      }

      .cls-28 {
        fill: #96c5ee;
      }

      .cls-29 {
        fill: #93c3ec;
      }

      .cls-30 {
        fill: #8bbbe8;
      }

      .cls-31 {
        fill: #7db1e4;
      }

      .cls-32 {
        fill: #35769b;
      }

      .cls-33 {
        fill: #33739a;
      }

      .cls-34 {
        fill: #397ba2;
      }

      .cls-35 {
        fill: #4686ad;
      }

      .cls-36 {
        fill: #85b8d4;
      }

      .cls-37 {
        fill: #c5e3f3;
      }

      .cls-38 {
        fill: #def4fd;
      }

      .cls-39 {
        fill: #cee9f8;
      }

      .cls-40 {
        fill: #b3daf7;
      }

      .cls-41 {
        fill: #daf1fc;
      }

      .cls-42 {
        fill: #d4edfa;
      }

      .cls-43 {
        fill: #d7f2fd;
      }

      .cls-44 {
        fill: #cbecfe;
      }

      .cls-45 {
        fill: #b2ddfa;
      }

      .cls-46 {
        fill: #a4d2f4;
      }

      .cls-47 {
        fill: #8dbfea;
      }

      .cls-48 {
        fill: #7ab2e4;
      }

      .cls-49 {
        fill: #70a7df;
      }

      .cls-50 {
        fill: #5f9cdd;
      }

      .cls-51 {
        fill: #154d6b;
      }

      .cls-52 {
        fill: #35789d;
      }

      .cls-53 {
        fill: #266284;
      }

      .cls-54 {
        fill: #407fa3;
      }

      .cls-55 {
        fill: #5692b6;
      }

      .cls-56 {
        fill: #85b8d5;
      }

      .cls-57 {
        fill: #9fc9e1;
      }

      .cls-58 {
        fill: #c7e4f4;
      }

      .cls-59 {
        fill: #ddf3fd;
      }

      .cls-60 {
        fill: #dcf4fd;
      }
    </style>
  </defs>
  <title>Asset 1</title>
  <g class="cls-1">
    <g id="Layer_2" data-name="Layer 2">
      <g id="Layer_2-2" data-name="Layer 2">
        <g>
          <g>
            <path class="cls-2" d="M330.71,174.9c-20.34-4.43-37.39-7.59-56.17,2.73-17.9,9.83-35.43,31.06-58.41,28.4-14.64-1.7-30.66-14.55-46.12-17.62-22.86-4.54-42.49,2.94-65.14-4.26-20.79-6.61-39.66-18.47-62.17-12.8-15.3,3.85-28,6.45-42.72,7.4v19.49c17.06-3,34-8.77,51.13-8.69,21.71.11,38.94,13.72,57.36,22.4,23.56,11.1,39.78,7,64.54,3.08a87.25,87.25,0,0,1,23.76-1.81,38.29,38.29,0,0,1,19,7.85c23.63,3.7,41.32-13.76,58.39-26.52,17.61-13.17,26.62-14.41,47.68-6.42,26.37,10,51.53,11.73,78.11,11.88v-20.2C377.2,180.31,355.44,180.29,330.71,174.9Z"/>
            <path class="cls-3" d="M393.61,170.26c-19.52,4.51-40.45-1.17-59.57-4.77-18-3.39-41-11-59.16-4.75-20,6.83-35.27,31.9-58.43,30.27C199.59,189.82,181,169.31,167,161.8c-24-12.88-40.18-.34-65.74-5.45-23.64-4.73-45-16.37-67-3.21-13.42,8-21.58,7.69-34.32,6.44v19.16c14.76-1,27.43-3.55,42.72-7.4,22.51-5.67,41.38,6.19,62.17,12.8,22.65,7.21,42.27-.28,65.14,4.26,15.46,3.07,31.48,15.92,46.12,17.62,23,2.66,40.51-18.57,58.41-28.4,18.78-10.31,35.82-7.16,56.17-2.73,24.72,5.38,46.48,5.41,69.29,4.88V168.53C397.94,169.16,395.82,169.75,393.61,170.26Z"/>
            <path class="cls-4" d="M328,153.34c-17.48-1.8-36.36-7.55-53.93-3.78-20.53,4.42-35.34,17.62-57.48,13.26-17.45-3.43-34.67-14.82-53.09-18.59-21.85-4.47-43-4.44-64.15-11.59-19.73-6.67-35.7-13.35-56.59-8.3C27,128.14,15,133.8,0,136.45v23.13c12.73,1.24,20.9,1.59,34.32-6.44,22-13.17,43.33-1.52,67,3.21,25.57,5.12,41.77-7.43,65.74,5.45,14,7.51,32.56,28,49.42,29.21,23.16,1.63,38.46-23.45,58.43-30.27,18.2-6.22,41.19,1.37,59.16,4.75,19.12,3.6,40,9.28,59.57,4.77,2.21-.51,4.33-1.1,6.39-1.73v-25C376.25,149,353.2,155.95,328,153.34Z"/>
            <path class="cls-5" d="M384.43,119.36c-20.2,6.58-30.79,17.43-54,18.92-19.11,1.23-38.18-1.09-57.29.12-20.43,1.29-37.42,6-56.54-3.75-20-10.21-33.77-9.37-56.75-8-29.07,1.77-39.06-4.6-62.55-17.74-13.87-7.75-29.47-14.69-46.22-13.39C32.64,97,17.3,108,0,114.05v22.4c15-2.66,27-8.31,42.72-12.11,20.9-5,36.87,1.63,56.59,8.3,21.16,7.16,42.29,7.12,64.15,11.59,18.42,3.77,35.64,15.16,53.09,18.59,22.14,4.35,36.95-8.85,57.48-13.26,17.57-3.78,36.45,2,53.93,3.78,25.24,2.6,48.29-4.32,72-9.82v-27.1A66.75,66.75,0,0,0,384.43,119.36Z"/>
            <path class="cls-6" d="M327.13,110.64c-17.76-1.42-35.14-5.07-53-2.93-20,2.39-36.55,10.86-57.3,8.2-37.06-4.75-77.21-16.56-112.24-28.71-15.65-5.43-31.8-11.94-49-10.77C35.94,77.76,18.75,88.26,0,93.8v20.25C17.3,108,32.64,97,51.13,95.55c16.74-1.29,32.35,5.64,46.22,13.39,23.49,13.13,33.48,19.5,62.55,17.74,23-1.39,36.72-2.24,56.75,8,19.12,9.75,36.11,5,56.54,3.75,19.11-1.21,38.18,1.1,57.29-.12,23.17-1.49,33.76-12.33,54-18.92A66.75,66.75,0,0,1,400,116.42V101C375.75,105.9,352,112.62,327.13,110.64Z"/>
            <path class="cls-7" d="M376.36,87.89c-18.59,3.29-34.73-.13-52.57-4.89C307.57,78.67,292,74.16,275,77c-20.31,3.4-37.19,18.8-58.06,20.14-18,1.16-31-7.58-45.66-15.93-20.09-11.42-37.23-11.37-59.53-15.77C94.84,62.12,77.59,56.26,60,57.31,39.17,58.54,20.19,68.4,0,73.49V93.8c18.75-5.54,35.94-16,55.57-17.37,17.18-1.16,33.33,5.35,49,10.77,35,12.15,75.18,24,112.24,28.71,20.75,2.66,37.27-5.81,57.3-8.2,17.89-2.14,35.27,1.51,53,2.93,24.84,2,48.62-4.73,72.87-9.6V82.58C392.24,84.51,384.45,86.46,376.36,87.89Z"/>
            <path class="cls-8" d="M323.22,59.62c-37.51,9.71-68.5,2.5-106.28-.38C181.88,56.57,144.5,55,110.1,48.12c-18-3.58-36.42-9.89-55.09-8.91C36,40.21,18.48,48.56,0,53V73.49C20.19,68.4,39.17,58.54,60,57.31c17.57-1,34.83,4.81,51.74,8.15,22.3,4.4,39.44,4.35,59.53,15.77,14.69,8.35,27.61,17.1,45.66,15.93C237.82,95.82,254.7,80.42,275,77c17-2.86,32.56,1.65,48.78,6,17.84,4.76,34,8.18,52.57,4.89,8.09-1.43,15.88-3.38,23.64-5.31V54.08C374.19,53.2,348.68,53,323.22,59.62Z"/>
            <path class="cls-9" d="M375.06,19.11C352,14,339.63,22.8,322.66,36.25c-14.12,11.19-28.12,25.13-48.35,19-21.74-6.61-34.45-29.48-57.37-33.89-15.43-3-31.5,3.66-46.06,7.14-22.27,5.33-39.64,6.87-62.42,2.31C89.4,27,69.79,20.23,50,21.12c-17.27.77-33.25,7.63-50,11.37V53c18.48-4.41,36-12.76,55-13.77,18.67-1,37.11,5.33,55.09,8.91C144.5,55,181.88,56.57,216.94,59.25c37.78,2.88,68.77,10.09,106.28.38,25.46-6.59,51-6.42,76.78-5.54v-28C391.86,23.59,383.69,21,375.06,19.11Z"/>
            <path class="cls-10" d="M323.22,14.7c-16.39,6.45-30.45,11.83-48.56,9.49-20.11-2.6-37.36-14.75-57.72-16.94C181.38,3.42,146.08,15.9,109.78,12c-18.25-2-36.5-5.19-55-4.83S18.3,11,0,12.89V32.48c16.77-3.73,32.74-10.59,50-11.37,19.78-.88,39.38,5.85,58.43,9.67,22.78,4.56,40.15,3,62.42-2.31,14.57-3.49,30.64-10.11,46.06-7.14,22.93,4.41,35.64,27.28,57.37,33.89,20.23,6.15,34.23-7.79,48.35-19C339.63,22.8,352,14,375.06,19.11c8.63,1.9,16.8,4.47,24.94,7V10C374.3,6.67,350.29,4.05,323.22,14.7Z"/>
            <path class="cls-11" d="M0,0V12.89C18.3,11,36.42,7.5,54.83,7.14s36.7,2.86,55,4.83c36.3,3.92,71.6-8.55,107.16-4.72,20.36,2.19,37.61,14.34,57.72,16.94,18.11,2.34,32.17-3,48.56-9.49C350.29,4.05,374.3,6.67,400,10V0Z"/>
          </g>
          <g>
            <path class="cls-12" d="M376.36,380.7c-18.14-3.29-35-.14-52.93,2.36-17,2.37-31.75-1-48.38-.4-20.38.72-38,11.95-58.11,13.2-39.13,2.44-65.3-27.16-106.06-14.34C93.41,387,78.09,394,59.28,394.61c-19.68.58-39.53-.68-59.28-1.27V400H400V386.15C392.24,384.16,384.45,382.17,376.36,380.7Z"/>
            <path class="cls-13" d="M376.36,354.91c-19.12-6.81-34.85-.36-53.28,4.72a79,79,0,0,1-24.6,4.18q-11.76-2.21-23.39-5c-23,1.31-36.24,24-58.15,26.4-44.47,4.84-58.3-58.6-106.29-28.68-17,10.6-30,24.9-51.74,26.17-19.32,1.13-39.32-1.38-58.9-2.56v13.18c19.74.59,39.6,1.85,59.28,1.27,18.81-.56,34.13-7.59,51.6-13.08,40.77-12.83,66.93,16.78,106.06,14.34,20.1-1.25,37.72-12.48,58.11-13.2,16.63-.59,31.37,2.77,48.38.4,17.95-2.5,34.79-5.65,52.93-2.36,8.1,1.47,15.88,3.46,23.64,5.45V365.87C392.51,361.94,384.95,358,376.36,354.91Z"/>
            <path class="cls-14" d="M382.61,336.88c-17.27-1.61-34.82,5.28-52.52,5-17.44-.25-35.55-6.43-52.76-5.46-21.59,1.22-39.06,16.46-60.35,18-16.91,1.22-27.49-5.87-41.92-12.42-22.38-10.15-35.86-11.94-59.38-1.94-19.12,8.13-37.11,20.69-59,20.91-18.91.19-37.79-5.19-56.68-7.93v27.1c19.58,1.18,39.58,3.69,58.9,2.56,21.71-1.27,34.74-15.57,51.74-26.17,48-29.92,61.83,33.51,106.29,28.68,21.91-2.38,35.2-25.09,58.15-26.4q11.63,2.76,23.39,5a79,79,0,0,0,24.6-4.18c18.43-5.07,34.15-11.52,53.28-4.72,8.59,3.06,16.15,7,23.64,11v-25A76.9,76.9,0,0,0,382.61,336.88Z"/>
            <path class="cls-15" d="M388.87,318.84q-10.7,4-21,8.72a77.94,77.94,0,0,1-30.73-3.38c-19.62-4.77-36.87-11.75-57.53-10.12-21.08,1.67-41.36,8.67-62.55,9.59-34.37,1.5-61.64-9.67-96.31,0-21.15,5.88-43.63,16.51-66.26,15.65C35.69,338.55,18.27,330.33,0,326v27.07c18.89,2.74,37.77,8.12,56.68,7.93,21.89-.22,39.88-12.77,59-20.91,23.52-10,37-8.22,59.38,1.94,14.43,6.55,25,13.64,41.92,12.42,21.29-1.54,38.76-16.78,60.35-18,17.22-1,35.32,5.2,52.76,5.46,17.7.26,35.25-6.63,52.52-5a76.9,76.9,0,0,1,17.39,4V318.53A51.86,51.86,0,0,0,388.87,318.84Z"/>
            <path class="cls-16" d="M386.36,299.77c-18.81,1.15-34.91,6.46-54.33,5.19-18.54-1.21-36.43-7.73-54.75-8.75-21.63-1.2-40.37,7.13-60.71,12.1-36.37,8.89-67.47-6.3-103.45-3.42-18.78,1.5-37.12,6.32-56.08,6-19.16-.33-38-4.5-57.05-6.66V326c18.27,4.33,35.69,12.55,54.46,13.28,22.63.87,45.1-9.77,66.26-15.65,34.67-9.64,61.94,1.54,96.31,0,21.19-.93,41.47-7.93,62.55-9.59,20.66-1.63,37.92,5.35,57.53,10.12a77.94,77.94,0,0,0,30.73,3.38q10.33-4.74,21-8.72a51.86,51.86,0,0,1,11.13-.32V299.88A109.7,109.7,0,0,0,386.36,299.77Z"/>
            <path class="cls-17" d="M327,285.73c-21.56,2.72-32.18-2.4-52-7.37-22-5.53-40.23,6.26-58.85,14.61-42,18.85-69.28,3.13-110.59-6.8-33-7.94-70.9-4.6-105.55-3.82v21.87c19,2.16,37.89,6.34,57.05,6.66,19,.33,37.31-4.49,56.08-6,36-2.88,67.08,12.31,103.45,3.42,20.34-5,39.07-13.3,60.71-12.1,18.32,1,36.21,7.54,54.75,8.75,19.42,1.27,35.52-4,54.33-5.19a109.7,109.7,0,0,1,13.64.11V282.06C375.73,282,352,282.57,327,285.73Z"/>
            <path class="cls-18" d="M373.86,266.19c-17.33-1.32-33.61-8.22-51.06-10.18-14.61-1.64-33-7-47.57-5.92-21.84,1.68-38.23,18.19-59,23a209.52,209.52,0,0,1-108.67-4c-18.34-5.76-36.44-11.83-56.06-11.92-17.18-.07-34.33,2.53-51.5,3.91v21.24c34.65-.78,72.53-4.12,105.55,3.82,41.31,9.93,68.57,25.66,110.59,6.8,18.62-8.36,36.84-20.14,58.85-14.61,19.79,5,30.4,10.09,52,7.37,25.1-3.16,48.78-3.78,73-3.67V265.45A149.35,149.35,0,0,1,373.86,266.19Z"/>
            <path class="cls-19" d="M363.87,251.69c-18.53-2.42-29.09-18.27-45.38-25.41-13.22-5.79-29-9.47-43.3-4.47-21.47,7.52-34.29,31-58.89,31.41A47.17,47.17,0,0,0,196,248a78.12,78.12,0,0,0-21.62,4.32c-25.44,6.06-39,9-64.84-.22-21.23-7.58-42.75-20.18-66.21-20.16-14.67,0-28.88,4.85-43.35,7.6v21.61c17.17-1.38,34.31-4,51.5-3.91,19.62.08,37.72,6.16,56.06,11.92a209.52,209.52,0,0,0,108.67,4c20.76-4.82,37.15-21.33,59-23,14.57-1.12,33,4.28,47.57,5.92,17.46,2,33.73,8.87,51.06,10.18a149.35,149.35,0,0,0,26.14-.74V248.34C387.69,251.1,375.32,253.19,363.87,251.69Z"/>
            <path class="cls-20" d="M370.11,225.76c-20.15-1.25-33.5-13.95-50.13-23s-29-13.36-45.64-2.43c-17.64,11.6-34.46,36.05-58.32,36.12a55.56,55.56,0,0,0-19.63-5.85,83,83,0,0,0-22.69,3.07C148.81,239,133.44,242,109,232c-19.89-8.14-39.21-21.11-61.79-21.28-15.88-.12-31.47,5.22-47.24,8.14V239.5c14.48-2.75,28.68-7.59,43.35-7.6,23.46,0,45,12.58,66.21,20.16,25.79,9.21,39.4,6.28,64.84.22A78.12,78.12,0,0,1,196,248a47.17,47.17,0,0,1,20.28,5.26c24.61-.39,37.42-23.89,58.89-31.41,14.28-5,30.08-1.32,43.3,4.47,16.29,7.14,26.85,23,45.38,25.41,11.46,1.5,23.82-.59,36.13-3.35v-24C390,225.56,380,226.37,370.11,225.76Z"/>
            <path class="cls-21" d="M321.89,188.1c-21.05-8-30.07-6.74-47.68,6.42-17.07,12.77-34.76,30.22-58.39,26.52a38.29,38.29,0,0,0-19-7.85A87.25,87.25,0,0,0,173,215c-24.76,3.93-41,8-64.54-3.08-18.42-8.68-35.65-22.29-57.36-22.4C34,189.46,17.06,195.18,0,198.23v20.63c15.77-2.92,31.36-8.26,47.24-8.14,22.58.17,41.89,13.14,61.79,21.28,24.41,10,39.79,7,64.68,1.65a83,83,0,0,1,22.69-3.07A55.56,55.56,0,0,1,216,236.43c23.85-.07,40.68-24.52,58.32-36.12,16.61-10.93,29.07-6.62,45.64,2.43s30,21.78,50.13,23c9.85.61,19.87-.2,29.89-1.37V200C373.43,199.83,348.26,198.1,321.89,188.1Z"/>
          </g>
        </g>
      </g>
      <g id="Layer_3" data-name="Layer 3">
        <g class="cls-22">
          <g>
            <path class="cls-23" d="M384.93,149.48c-28.84-4.44-51.3,11.92-76.7,22.14-27.68,11.14-53.09,4.19-81.32,12.14-19.08,5.37-37.86,22.63-56.05,26.25-28.56,5.68-52.78-18.11-76.27-28.08-24.64-10.46-45.71-4.82-70.78,2.72-8.13,2.44-16,4.4-23.8,6v22a216.59,216.59,0,0,0,36.25-13c25.6-11.91,37-11.37,60.51,2.66,22.76,13.6,46.77,32.82,76.05,25.81a49.22,49.22,0,0,1,23.09-11.53,114,114,0,0,1,30-.35c31.48,2.09,52.26,5.31,80.69-10.64,22.22-12.47,42.43-30.77,69.67-33.23a136,136,0,0,1,23.73.21v-21C395.15,151,390.16,150.29,384.93,149.48Z"/>
            <path class="cls-24" d="M393.59,126.57c-29-13.56-54.54,2.8-83.73,11.06-31.56,8.92-53.21-4.51-82,13.64-16.77,10.58-38,37.37-59,40.61-28.9,4.45-50.72-24.23-76.49-30.34-23.49-5.57-51.56,6.07-73.77,12.09-6.09,1.65-12.32,3.48-18.64,5.23v11.79c7.77-1.59,15.67-3.55,23.8-6,25.07-7.54,46.14-13.18,70.78-2.72,23.49,10,47.71,33.76,76.27,28.08,18.2-3.62,37-20.88,56.05-26.25,28.23-7.95,53.64-1,81.32-12.14,25.4-10.23,47.86-26.58,76.7-22.14,5.23.81,10.22,1.52,15.07,2.13V129.28C398,128.52,395.84,127.63,393.59,126.57Z"/>
            <path class="cls-25" d="M380,92.66c-26.75-3.87-46.11,5.92-70.18,16.1-25.82,10.92-52.35,13.15-79.31,20.89-22.72,6.53-43.16,22.15-64.7,28.17-27.33,7.63-47.3-6.74-73.53-9.88-22.45-2.69-45.55,6.29-67.3,10.34a149.51,149.51,0,0,1-25,2.43v18.15c6.32-1.75,12.55-3.58,18.64-5.23,22.21-6,50.28-17.66,73.77-12.09,25.76,6.11,47.59,34.79,76.49,30.34,21-3.24,42.23-30,59-40.61,28.75-18.15,50.4-4.71,82-13.64C339,129.38,364.6,113,393.59,126.57c2.25,1.05,4.38,1.95,6.41,2.71V96.44C393.67,95,387.14,93.68,380,92.66Z"/>
            <path class="cls-26" d="M366.5,58.75c-21.15.23-40,10.29-56.62,21.15-28.12,18.4-40,27.17-76.67,28.15-29,.78-46.33,1.23-70.41,15.72-23,13.84-44.81,10-70.58,10.59-24.11.58-47.81,5.43-71.92,6A91.59,91.59,0,0,1,0,138.63v22.09a149.51,149.51,0,0,0,25-2.43c21.75-4.05,44.86-13,67.3-10.34,26.24,3.14,46.2,17.51,73.53,9.88,21.55-6,42-21.64,64.7-28.17,27-7.75,53.49-10,79.31-20.89,24.07-10.18,43.42-20,70.18-16.1,7.09,1,13.63,2.38,20,3.78V65.09C389.16,61.5,378.2,58.62,366.5,58.75Z"/>
            <path class="cls-27" d="M358.93,36.1c-21.68.43-41.28,10-60.36,18.28-42.71,18.44-91.88,37-137.91,46.74-25.77,5.44-47.38-3-72.78-3.77-22.68-.67-44.11,5.6-66.26,9.23a159.19,159.19,0,0,1-21.62,2v30.1a91.59,91.59,0,0,0,20.3,1.71c24.11-.56,47.81-5.41,71.92-6,25.77-.62,47.59,3.25,70.58-10.59,24.07-14.49,41.41-14.94,70.41-15.72,36.67-1,48.55-9.75,76.67-28.15C326.48,69,345.34,59,366.5,58.75c11.7-.13,22.66,2.76,33.5,6.35v-22C386.56,39.24,373.09,35.82,358.93,36.1Z"/>
            <path class="cls-28" d="M351.36,13.45c-22.17.62-43.21,9.55-64.1,15.4-27.53,7.71-49.06,9.49-73.08,25.45C196.6,66,181.3,77.93,158.52,78.46c-26.34.61-49.13-16.19-75-18.13-21.68-1.63-40.69,5.48-60.6,12.46C15.13,75.53,7.57,78,0,80v28.5a159.19,159.19,0,0,0,21.62-2c22.15-3.62,43.59-9.89,66.26-9.23,25.4.75,47,9.21,72.78,3.77,46-9.71,95.2-28.3,137.91-46.74,19.08-8.24,38.68-17.84,60.36-18.28,14.16-.28,27.63,3.14,41.07,7V20.59C383.95,16.75,367.94,13,351.36,13.45Z"/>
            <path class="cls-29" d="M312.37,0C304,2.62,295.76,5.4,287.53,7.71c-42.46,12-89.22,17.92-132.95,24.9C107.46,40.15,69.31,52.18,21.22,44.46,14.12,43.32,7,42.58,0,42.14V80c7.57-2,15.13-4.5,22.94-7.24,19.91-7,38.92-14.09,60.6-12.46,25.85,1.94,48.64,18.75,75,18.13C181.3,77.93,196.6,66,214.18,54.3c24-16,45.55-17.73,73.08-25.45,20.89-5.85,41.93-14.78,64.1-15.4,16.58-.47,32.59,3.3,48.64,7.14V0Z"/>
            <path class="cls-30" d="M126.43,0C112,11.69,100,27,82.16,33.9,57.4,43.51,38.38,28.15,19.5,16.14A208.76,208.76,0,0,0,0,4.76V42.14c7,.44,14.12,1.19,21.22,2.33,48.09,7.72,86.24-4.32,133.37-11.85,43.72-7,90.49-12.94,132.95-24.9C295.76,5.4,304,2.62,312.37,0Z"/>
            <path class="cls-31" d="M0,0V4.76A208.76,208.76,0,0,1,19.5,16.14c18.89,12,37.91,27.37,62.66,17.76C100,27,112,11.69,126.43,0Z"/>
          </g>
          <g>
            <path class="cls-32" d="M354.83,400c-12.18-5.44-23.31-13.14-35.89-19.3-36.65-18-55.7.64-76.16,19.3Z"/>
            <path class="cls-33" d="M387.14,380.29c-27.5,2.08-51.39-11.17-76.23-19-30.56-9.58-47.3-6-74.33,8.7-17.44,9.47-30,19.18-51.33,19.51-26.88.42-50.4-16.13-77.63-15.29-21.71.67-43.79,10.08-65.66,12.25-13.91,1.38-28-.63-42-1.4V400H242.79c20.45-18.66,39.5-37.26,76.16-19.3,12.58,6.16,23.71,13.86,35.89,19.3H400V378.69C395.73,379.4,391.45,380,387.14,380.29Z"/>
            <path class="cls-34" d="M387.67,353.78c-28.32,3.47-57.63-7-84.79-11.82-44.53-7.94-77.59,8.5-120.89,10.36-26.69,1.15-52.88-5.14-79.52-4.9-26.1.24-47,10.53-71.16,18.4A101.33,101.33,0,0,1,0,373v12.15c13.91.76,28,2.78,42,1.4,21.87-2.18,43.95-11.58,65.66-12.25,27.23-.84,50.75,15.71,77.63,15.29,21.36-.33,33.9-10,51.33-19.51,27-14.67,43.77-18.28,74.33-8.7,24.85,7.79,48.73,21,76.23,19,4.31-.33,8.59-.88,12.86-1.59V351.46A104,104,0,0,1,387.67,353.78Z"/>
            <path class="cls-35" d="M381.46,319.74c-23.77,2.43-47.29-1.42-71-1.23-45.46.37-82.92,22.07-129.49,15.22-26-3.83-50.43-11.89-77.46-8.13-22.89,3.19-44.66,13-67.81,16.44-12.53,1.87-24.12,1.51-35.68.83V373a101.33,101.33,0,0,0,31.3-7.13c24.13-7.87,45.06-18.16,71.16-18.4,26.64-.24,52.82,6,79.52,4.9,43.3-1.86,76.36-18.3,120.89-10.36,27.16,4.84,56.48,15.29,84.79,11.82A104,104,0,0,0,400,351.46V317C393.86,318.15,387.69,319.1,381.46,319.74Z"/>
            <path class="cls-36" d="M318,295.05c-50.82,16.44-83.41,38.37-138.1,20.08-24.24-8.11-48.34-20.41-75.4-11.36C80.2,311.9,67.4,319.22,40.06,318.25c-13.66-.49-26.94-.43-40.06,0v24.61c11.56.69,23.15,1,35.68-.83,23.15-3.45,44.92-13.25,67.81-16.44,27-3.77,51.41,4.3,77.46,8.13,46.58,6.85,84-14.85,129.49-15.22,23.73-.19,47.25,3.66,71,1.23,6.23-.64,12.4-1.59,18.54-2.72V281.91C371.72,283.75,343.44,286.83,318,295.05Z"/>
            <path class="cls-37" d="M382.85,254.23c-24.62,2.21-46.7,11.49-69.13,20.42a273.6,273.6,0,0,1-136,16.46c-26.56-3.61-48.85-21.81-76.44-21.5-18.41.21-40.93,8.71-59.1,12.26C27.62,284.72,13.95,290.19,0,294.54v23.72c13.12-.43,26.4-.49,40.06,0,27.35,1,40.14-6.35,64.46-14.48,27.06-9,51.15,3.25,75.4,11.36,54.7,18.29,87.28-3.64,138.1-20.08,25.43-8.22,53.71-11.31,82-13.14V253.3C394.27,253.44,388.55,253.72,382.85,254.23Z"/>
            <path class="cls-38" d="M390.44,222.77c-29.45,2.49-55.16,20-81,31.47-31.41,13.9-48.8,11.82-81.36,7.21a101.79,101.79,0,0,0-27.58-2.91,61.21,61.21,0,0,0-24.91,8.54c-30.93,2.17-49.46-24.87-77.19-31.66-18.44-4.51-37.89,1.62-53.89,10C27.81,254.26,16.92,270.16,0,277.81v16.73c13.95-4.34,27.62-9.82,42.18-12.67,18.17-3.55,40.69-12,59.1-12.26,27.59-.31,49.88,17.89,76.44,21.5a273.6,273.6,0,0,0,136-16.46c22.42-8.92,44.5-18.21,69.13-20.42,5.7-.51,11.42-.79,17.15-.94V222.47C396.82,222.43,393.63,222.5,390.44,222.77Z"/>
            <path class="cls-39" d="M383.36,197.58C355,200.2,332.14,218,308,229.93c-29.6,14.69-49.21,12.76-81,8.92a108.34,108.34,0,0,0-28.79-1.28,72,72,0,0,0-24,9.18c-29.95,2.47-53.61-25.29-77-37.43-22-11.43-37.18-4.89-57,7.83C26.21,226.09,14.45,237,0,244v33.81c16.92-7.64,27.81-23.55,44.5-32.34,16-8.42,35.44-14.56,53.89-10,27.74,6.79,46.27,33.82,77.19,31.66a61.21,61.21,0,0,1,24.91-8.54,101.79,101.79,0,0,1,27.58,2.91c32.57,4.61,50,6.68,81.36-7.21,25.86-11.44,51.56-29,81-31.47,3.19-.27,6.37-.35,9.56-.31V197.38A113,113,0,0,0,383.36,197.58Z"/>
            <path class="cls-40" d="M376.27,172.39c-27.24,2.45-47.45,20.76-69.67,33.23-28.42,15.95-49.2,12.73-80.69,10.64a114,114,0,0,0-30,.35,49.22,49.22,0,0,0-23.09,11.53c-29.28,7-53.29-12.21-76.05-25.81-23.48-14-34.92-14.57-60.51-2.66A216.59,216.59,0,0,1,0,212.7V244c14.45-7,26.21-17.91,40.16-26.85,19.86-12.72,35.05-19.26,57-7.83,23.35,12.14,47,39.9,77,37.43a72,72,0,0,1,24-9.18A108.34,108.34,0,0,1,227,238.85c31.82,3.84,51.42,5.77,81-8.92,24.12-12,47-29.73,75.34-32.35a113,113,0,0,1,16.64-.2V172.59A136,136,0,0,0,376.27,172.39Z"/>
          </g>
        </g>
      </g>
      <g id="Layer_4" data-name="Layer 4">
        <g class="cls-22">
          <g>
            <path class="cls-41" d="M396,189.14c-28.31-9.78-54.22,1-81.9,5.46-30.17,4.89-54.53-6.55-84.63-4.72-20.35,1.23-42.7,13.54-61.81,13.32-30-.34-49.88-27.16-71.71-41-22.9-14.54-45.31-13.44-72.14-11.38-8.2.63-16.11.9-23.83.89v20.11a236.76,236.76,0,0,0,33.5-4.64c28.21-6,39.68-3.27,60.71,14.35,20.38,17.09,40.94,39.62,71.93,38.87a53.4,53.4,0,0,1,25.6-6.16,127.89,127.89,0,0,1,30.43,5.57c31.44,8.13,51.84,15.19,83.7,6,24.9-7.19,48.91-20.2,76.95-17.12A137.6,137.6,0,0,1,400,211.77V190.5Z"/>
            <path class="cls-42" d="M322.37,163.41c-33.67,2.07-53-14.63-85.57-3.46-19,6.52-45.66,27.19-67.58,26.06-30.1-1.55-46.61-32.43-71.48-43.16-22.68-9.78-53.34-4.5-77-3.28C14,139.92,7,140.42,0,140.81V151.7c7.72,0,15.63-.26,23.83-.89,26.83-2.06,49.25-3.15,72.14,11.38,21.83,13.86,41.7,40.67,71.71,41,19.11.22,41.46-12.09,61.81-13.32,30.1-1.82,54.46,9.61,84.63,4.72,27.69-4.49,53.59-15.25,81.9-5.46l4,1.36V164.42C375.88,153.56,350,161.71,322.37,163.41Z"/>
            <path class="cls-43" d="M328,136.64c-28.24,5.05-55.51,1.91-84.3,3.79-24.26,1.59-48,12.06-70.94,13.4-29.14,1.71-46.54-15.54-72.47-23.6-22.19-6.9-47.31-3.12-70.1-3.63A171.75,171.75,0,0,1,0,123.1v17.71c7-.39,14-.89,20.75-1.24,23.64-1.22,54.3-6.5,77,3.28,24.88,10.73,41.38,41.61,71.48,43.16,21.92,1.13,48.57-19.54,67.58-26.06,32.62-11.18,51.9,5.53,85.57,3.46,27.58-1.7,53.51-9.84,77.63,1v-29.6C374.64,126.95,353.61,132.06,328,136.64Z"/>
            <path class="cls-44" d="M395,101.4c-21.45-3.94-42.49,1.68-61.39,8.48-32,11.53-45.75,17.33-83,11-29.48-5-47.11-8-74.29.74-25.95,8.31-47.27.44-73.47-4-24.51-4.19-49.43-4.36-73.93-8.58A102.55,102.55,0,0,1,0,99.61V123.1a171.75,171.75,0,0,0,30.18,3.5c22.79.51,47.91-3.27,70.1,3.63,25.93,8.06,43.34,25.31,72.47,23.6,23-1.35,46.68-11.81,70.94-13.4,28.79-1.88,56.06,1.26,84.3-3.79,25.62-4.58,46.65-9.69,72-1.82V102.49C398.36,102.07,396.7,101.71,395,101.4Z"/>
            <path class="cls-45" d="M391.76,78.91c-22-3.86-43.72,1.2-64.62,5.08C280.34,92.7,227,100.28,178.53,100.24c-27.12,0-47.35-12.11-72.9-17.79C82.82,77.37,59.91,79,36.8,78A198.84,198.84,0,0,1,0,72.6v27A102.55,102.55,0,0,0,28.89,109c24.5,4.21,49.42,4.38,73.93,8.58,26.2,4.48,47.52,12.36,73.47,4,27.17-8.71,44.8-5.72,74.29-.74,37.29,6.29,51,.5,83-11,18.9-6.81,39.95-12.43,61.39-8.48,1.69.31,3.35.68,5,1.09V80.74C397.3,80,394.56,79.4,391.76,78.91Z"/>
            <path class="cls-46" d="M388.5,56.43c-22.55-3.78-45.58.36-67.85,1.69-29.35,1.74-51.48-.84-78.89,9.24-20.05,7.37-37.86,15.45-61,11.47C154,74.21,134.21,54.15,108.43,47.28c-21.62-5.77-42.24-2.91-63.73-.35C29.22,48.76,14.76,50,0,48.89V72.6A198.84,198.84,0,0,0,36.8,78c23.11,1,46-.61,68.83,4.46,25.55,5.68,45.77,17.77,72.9,17.79C227,100.28,280.34,92.7,327.14,84c20.91-3.89,42.6-8.94,64.62-5.08,2.8.49,5.54,1.11,8.24,1.83V59C396.23,57.95,392.41,57.08,388.5,56.43Z"/>
            <path class="cls-47" d="M397.31,36.51c-24-3.87-48.6.62-72.26,2.06-45.28,2.75-93.75-.92-139.34-3-49.14-2.28-90.08,1.39-137.24-15.22A279.6,279.6,0,0,0,0,8.36V48.89c14.76,1.15,29.22-.12,44.7-2,21.5-2.56,42.11-5.41,63.73.35,25.78,6.88,45.56,26.94,72.33,31.54,23.15,4,41-4.1,61-11.47,27.41-10.07,49.53-7.49,78.89-9.24,22.27-1.32,45.3-5.46,67.85-1.69,3.9.65,7.73,1.52,11.5,2.53V37C399.1,36.84,398.21,36.66,397.31,36.51Z"/>
            <path class="cls-48" d="M329.43,19c-30,1.85-52.22-2.46-80.27-11.82C242.73,5.06,236.1,2.44,229.34,0H163.07c-16.72,8-31.71,19.63-50.9,22.51C89,26,73.7,13.13,59.19,0H0V8.36a279.6,279.6,0,0,1,48.46,12C95.62,36.93,136.56,33.27,185.7,35.54c45.59,2.11,94.06,5.77,139.34,3,23.66-1.43,48.3-5.93,72.26-2.06.9.15,1.8.33,2.69.5V15.83C376.52,13.44,352.51,17.6,329.43,19Z"/>
            <path class="cls-49" d="M59.19,0C73.7,13.13,89,26,112.17,22.51,131.36,19.63,146.34,8,163.07,0Z"/>
            <path class="cls-50" d="M400,0H229.34c6.76,2.44,13.39,5.06,19.82,7.2,28.06,9.37,50.28,13.68,80.27,11.82,23.08-1.42,47.08-5.59,70.57-3.19Z"/>
          </g>
          <g>
            <path class="cls-51" d="M0,400H85a103.45,103.45,0,0,0-16.34-3.86c-21.39-3.12-40.85-1.46-62.5-6.67L0,388Z"/>
            <path class="cls-52" d="M296.62,400c-4-3.21-8-6.41-12.31-9.46-39.26-27.87-63.9-4.73-93.29,9.46Z"/>
            <path class="cls-53" d="M71.75,368.93q-15.37,1.44-30.84,2.24a115,115,0,0,1-31.21-8.4c-3.3-1.21-6.53-2.45-9.71-3.67V388l6.21,1.51c21.65,5.21,41.11,3.55,62.5,6.67A103.45,103.45,0,0,1,85,400h39.9C107.58,389.44,94,372.62,71.75,368.93Z"/>
            <path class="cls-32" d="M279.95,371c-29.06-14.88-46.69-14.83-76.89-6.53-19.48,5.35-34.05,11.89-55.73,8-27.28-4.89-47.85-24.86-75.57-29.42-22.1-3.64-46.26.74-68.81-1.54-1-.1-2-.23-3-.36v18c3.18,1.22,6.4,2.45,9.71,3.67a115,115,0,0,0,31.21,8.4q15.47-.8,30.84-2.24c22.27,3.68,35.82,20.5,53.19,31.07H191c29.39-14.18,54-37.33,93.29-9.46,4.29,3,8.34,6.25,12.31,9.46h40.57C316.45,393.49,298.85,380.69,279.95,371Z"/>
            <path class="cls-54" d="M359.07,379.09c-29.32-2.34-56.95-17.79-83.49-27.61-43.5-16.1-80.15-7.36-124.32-14.14-27.23-4.18-52.5-15.15-79.5-20.16-25.15-4.67-47.35,0-71.77,2.68v21.3c1,.13,2,.26,3,.36,22.55,2.28,46.71-2.1,68.81,1.54,27.71,4.57,48.29,24.54,75.57,29.42,21.67,3.89,36.25-2.65,55.73-8,30.2-8.29,47.83-8.35,76.89,6.53,18.9,9.68,36.5,22.48,57.24,29H400V376.36C386.44,378.47,372.88,380.19,359.07,379.09Z"/>
            <path class="cls-55" d="M359.42,346.31c-24.52-2.42-47.57-10.61-71.61-15.1-46.06-8.59-88.18,4.17-134-11.32C128.23,311.22,105.13,299,77,297.14c-23.78-1.54-47.71,3.27-71.8,1.92-1.78-.1-3.52-.24-5.25-.41v21.21c24.42-2.67,46.61-7.35,71.77-2.68,27,5,52.27,16,79.5,20.16,44.17,6.78,80.81-2,124.32,14.14,26.54,9.82,54.17,25.27,83.49,27.61,13.8,1.1,27.37-.62,40.93-2.72V347.45C386.45,347.66,372.92,347.64,359.42,346.31Z"/>
            <path class="cls-56" d="M300,311c-54.61,5.25-91.84,19.19-143.62-8.52C133.45,290.16,111.46,274,82.33,277.1c-26.18,2.76-40.55,7-68,.76Q7.1,276.22,0,274.79v23.87c1.73.16,3.47.31,5.25.41,24.09,1.35,48-3.46,71.8-1.92,28.08,1.82,51.18,14.09,76.79,22.75,45.79,15.5,87.91,2.74,134,11.32,24,4.48,47.09,12.68,71.61,15.1,13.5,1.33,27,1.35,40.58,1.14V316.89C366.36,312.07,331.91,307.89,300,311Z"/>
            <path class="cls-57" d="M373.55,285.85c-25.34-2.79-49.48,1.48-73.91,5.35-45.86,7.26-95.76,3.28-140.78-11.46-26.17-8.56-45.19-29.82-73.16-35-18.66-3.42-43.1,0-62.18-.25A207.46,207.46,0,0,0,0,245.8v29q7.11,1.44,14.3,3.07c27.48,6.27,41.84,2,68-.76,29.13-3.07,51.12,13.07,74.07,25.34,51.78,27.71,89,13.77,143.62,8.52,31.89-3.07,66.33,1.11,100,5.93V290C391.22,288.29,382.42,286.83,373.55,285.85Z"/>
            <path class="cls-58" d="M387.35,258.18c-30.28-3.48-59.7,7.74-88.08,13.26-34.48,6.71-51.67,1.37-83.72-9.3A113.27,113.27,0,0,0,188.21,254a67.69,67.69,0,0,0-26.86,3c-31.71-4.07-45.2-32.77-71.94-44.52-17.78-7.81-38.65-5.94-56.47-1.27-12,3.16-22.21,9.56-32.94,14.7V245.8a207.46,207.46,0,0,1,23.53-1.25c19.08.28,43.51-3.18,62.18.25,28,5.13,47,26.39,73.16,35,45,14.73,94.92,18.72,140.78,11.46,24.42-3.87,48.57-8.14,73.91-5.35,8.87,1,17.67,2.44,26.45,4.11V260.4A116.06,116.06,0,0,0,387.35,258.18Z"/>
            <path class="cls-59" d="M385.08,233.42c-29.16-3.13-55.78,8.84-82.51,15.2-32.81,7.81-52.27,2.16-83.71-7.64A121.07,121.07,0,0,0,190,234.13a79.31,79.31,0,0,0-26.1,3.79c-30.78-3.59-49.32-34-70.58-49.82-20-14.92-36.67-11.84-59.23-3.95C22.21,188.3,11.38,193.71,0,197.7V226c10.72-5.14,20.89-11.55,32.94-14.7,17.82-4.67,38.69-6.53,56.47,1.27C116.15,224.27,129.64,253,161.35,257a67.69,67.69,0,0,1,26.86-3,113.27,113.27,0,0,1,27.34,8.12c32,10.67,49.24,16,83.72,9.3,28.38-5.53,57.8-16.74,88.08-13.26A116.06,116.06,0,0,1,400,260.4V236A123.36,123.36,0,0,0,385.08,233.42Z"/>
            <path class="cls-60" d="M382.81,208.68c-28-3.08-52,9.93-76.95,17.12-31.86,9.21-52.26,2.14-83.7-6a127.89,127.89,0,0,0-30.43-5.57,53.4,53.4,0,0,0-25.6,6.16c-31,.74-51.54-21.79-71.93-38.87-21-17.62-32.49-20.37-60.71-14.35A236.76,236.76,0,0,1,0,171.81V197.7c11.38-4,22.21-9.4,34.06-13.55,22.57-7.89,39.21-11,59.23,3.95,21.26,15.84,39.81,46.22,70.58,49.82a79.31,79.31,0,0,1,26.1-3.79A121.07,121.07,0,0,1,218.86,241c31.44,9.81,50.9,15.45,83.71,7.64,26.73-6.36,53.35-18.33,82.51-15.2A123.36,123.36,0,0,1,400,236V211.77A137.6,137.6,0,0,0,382.81,208.68Z"/>
          </g>
        </g>
      </g>
    </g>
  </g>
</svg>
