<svg xmlns="http://www.w3.org/2000/svg" viewBox="0 0 409.66 304.22">
  <defs>
    <style>
      .cls-1 {
        fill: #929292;
      }

      .cls-2 {
        fill: #55a8b0;
      }

      .cls-3 {
        fill: #ffbeb3;
      }

      .cls-4 {
        fill: #ffe8b3;
      }

      .cls-5 {
        fill: #80cbe1;
      }

      .cls-6 {
        fill: #b5e1ee;
      }
    </style>
  </defs>
  <title>Asset 1</title>
  <g id="Layer_2" data-name="Layer 2">
    <g id="Layer_1-2" data-name="Layer 1">
      <g id="Layer_2-2" data-name="Layer 2">
        <g id="Layer_1-2-2" data-name="Layer 1-2">
          <g id="Layer_2-2-2" data-name="Layer 2-2">
            <g id="Layer_1-2-2-2" data-name="Layer 1-2-2">
              <g>
                <path class="cls-1" d="M337.7,224s-64.44-27.7-105.63-59.57c2.17-4.46,1.15-10.07-4.3-16.68,41,31.7,62.41,16,43.2-25.37S163.1,49,73.43,90.3C2.89,122.77-15.74,166.07,12.87,214.92c31.93,54.54,115.85,79.74,144.53,85.26,0,0,71.27,15.13,139.43-29.35S337.7,224,337.7,224Z"/>
                <path class="cls-2" d="M384.66,198.56s-89.82-63.69-95.57-120.3C257,59,297.93,51,266,30.9L76.51,139.43s-5.25,76,40,122.46c26.4,27.13,54.67,39,54.67,39s64.69,20.31,152.21-39.39S384.66,198.56,384.66,198.56Z"/>
                <path class="cls-3" d="M174,196s26.76,66.08,103.56,77.14C277.55,273.18,215.62,259.47,174,196Z"/>
                <path class="cls-4" d="M255.81,154s26.76,66.08,103.56,77.14C359.37,231.17,297.43,217.45,255.81,154Z"/>
                <path class="cls-5" d="M247.7,62.82S267.3,66.13,280.26,81c16.6,19.08,12.53,45.7,12.53,45.7C302.7,78.67,259.1,61.33,247.7,62.82Z"/>
                <path class="cls-6" d="M178.61,19.15C93.93,62.73,56.44,120.85,63.77,186.42c8.18,73.2,81.12,107,107.4,114.44C75.83,237.77,94.63,127,133.94,140.31a150.18,150.18,0,0,1,18,9.1c48.46,28.37,72.62-16.86,46.62-54.68C232.84,152.65,321,141.14,308,96.22c27.18,42.55,102.83,55.55,101.65,0S286.25-36.25,178.61,19.15Z"/>
              </g>
            </g>
          </g>
        </g>
      </g>
    </g>
  </g>
</svg>
