<svg xmlns="http://www.w3.org/2000/svg" viewBox="0 0 409.58 304.18">
  <defs>
    <style>
      .cls-1 {
        fill: #929292;
      }

      .cls-2 {
        fill: #22a7d8;
      }

      .cls-3 {
        fill: #bfeaf7;
      }

      .cls-4 {
        fill: #80cbe1;
      }
    </style>
  </defs>
  <title>wave4</title>
  <g id="Layer_2" data-name="Layer 2">
    <g id="Layer_1-2" data-name="Layer 1">
      <g>
        <path class="cls-1" d="M337.67,224s-64.4-27.7-105.6-59.6c2.2-4.5,1.1-10.1-4.3-16.7,41,31.7,62.4,16,43.2-25.4S163.07,49,73.47,90.16c-70.6,32.6-89.2,75.9-60.6,124.7,31.9,54.5,115.9,79.7,144.5,85.3,0,0,71.3,15.1,139.4-29.3S337.67,224,337.67,224Z"/>
        <path class="cls-2" d="M384.67,198.56s-89.8-63.7-95.6-120.3C257,59,297.87,51,266,30.86c-73.6,42.2-189.5,108.5-189.5,108.5s-5.3,76,40,122.5c26.4,27.1,54.7,39,54.7,39s64.7,20.3,152.2-39.4S384.67,198.56,384.67,198.56Z"/>
        <path class="cls-3" d="M174,196s26.8,66.1,103.6,77.1C277.57,273.16,215.57,259.46,174,196Z"/>
        <path class="cls-3" d="M255.77,154s26.8,66.1,103.6,77.1C359.37,231.16,297.37,217.46,255.77,154Z"/>
        <path class="cls-4" d="M247.67,62.76s19.6,3.3,32.6,18.2c16.6,19.1,12.5,45.7,12.5,45.7C302.67,78.66,259.07,61.26,247.67,62.76Z"/>
        <path class="cls-3" d="M178.57,19.16c-84.7,43.5-122.2,101.7-114.8,167.2,8.2,73.2,81.1,107,107.4,114.4-95.3-63.1-76.5-173.9-37.2-160.5a152.46,152.46,0,0,1,18,9.1c48.5,28.4,72.6-16.9,46.6-54.7,34.3,57.9,122.4,46.4,109.4,1.5,27.2,42.6,102.8,55.6,101.6,0S286.27-36.24,178.57,19.16Z"/>
      </g>
    </g>
  </g>
</svg>
