<?xml version="1.0" encoding="utf-8"?>
<!-- Generator: Adobe Illustrator 21.1.0, SVG Export Plug-In . SVG Version: 6.00 Build 0)  -->
<svg version="1.1" id="Layer_1" xmlns="http://www.w3.org/2000/svg" xmlns:xlink="http://www.w3.org/1999/xlink" x="0px" y="0px"
	 viewBox="0 0 409.6 304.2" style="enable-background:new 0 0 409.6 304.2;" xml:space="preserve">
<style type="text/css">
	.st0{fill:#929292;}
	.st1{fill:#55A8B0;}
	.st2{fill:#FFBEB3;}
	.st3{fill:#FFE8B3;}
	.st4{fill:#80CBE1;}
	.st5{fill:#B5E1EE;}
</style>
<title>Asset 1</title>
<g id="Layer_2">
	<g id="Layer_1-2">
		<g id="Layer_2-2">
			<g id="Layer_1-2-2">
				<g>
					<path class="st0" d="M337.7,224c0,0-64.4-27.7-105.6-59.6c2.2-4.5,1.1-10.1-4.3-16.7c41,31.7,62.4,16,43.2-25.4
						S163.1,49,73.4,90.3c-70.5,32.5-89.2,75.8-60.6,124.6c31.9,54.5,115.8,79.7,144.5,85.3c0,0,71.3,15.1,139.4-29.4
						S337.7,224,337.7,224z"/>
					<path class="st1" d="M384.7,198.6c0,0-89.8-63.7-95.6-120.3C257,59,297.9,51,266,30.9L76.5,139.4c0,0-5.2,76,40,122.5
						c26.4,27.1,54.7,39,54.7,39s64.7,20.3,152.2-39.4S384.7,198.6,384.7,198.6z"/>
					<path class="st2" d="M174,196c0,0,26.8,66.1,103.6,77.1C277.5,273.2,215.6,259.5,174,196z"/>
					<path class="st3" d="M255.8,154c0,0,26.8,66.1,103.6,77.1C359.4,231.2,297.4,217.4,255.8,154z"/>
					<path class="st4" d="M247.7,62.8c0,0,19.6,3.3,32.6,18.2c16.6,19.1,12.5,45.7,12.5,45.7C302.7,78.7,259.1,61.3,247.7,62.8z"/>
					<path class="st5" d="M178.6,19.1C93.9,62.7,56.4,120.8,63.8,186.4c8.2,73.2,81.1,107,107.4,114.4
						C75.8,237.8,94.6,127,133.9,140.3c6.2,2.6,12.2,5.7,18,9.1c48.5,28.4,72.6-16.9,46.6-54.7c34.3,57.9,122.4,46.4,109.4,1.5
						c27.2,42.6,102.8,55.6,101.6,0S286.2-36.2,178.6,19.1z"/>
				</g>
			</g>
		</g>
	</g>
</g>
</svg>
